<mxfile host="app.diagrams.net" modified="2023-06-19T17:34:19.301Z" agent="Mozilla/5.0 (Windows NT 10.0; Win64; x64) AppleWebKit/537.36 (KHTML, like Gecko) Chrome/114.0.0.0 Safari/537.36" etag="-l6tms6n2kWEP-BjybCn" version="21.5.0" type="device">
  <diagram name="Page-1" id="wdju8hmJzOToleK_twby">
    <mxGraphModel dx="1235" dy="674" grid="1" gridSize="10" guides="1" tooltips="1" connect="1" arrows="1" fold="1" page="1" pageScale="1" pageWidth="850" pageHeight="1100" math="0" shadow="0">
      <root>
        <mxCell id="0" />
        <mxCell id="1" parent="0" />
        <mxCell id="iNb2ohB7dpiWv9dnyk5C-1" value="Local Machine" style="swimlane;whiteSpace=wrap;html=1;" vertex="1" parent="1">
          <mxGeometry x="40" y="40" width="1590" height="640" as="geometry" />
        </mxCell>
        <mxCell id="iNb2ohB7dpiWv9dnyk5C-10" value="" style="whiteSpace=wrap;html=1;aspect=fixed;" vertex="1" parent="iNb2ohB7dpiWv9dnyk5C-1">
          <mxGeometry x="1410" y="250" width="160" height="160" as="geometry" />
        </mxCell>
        <mxCell id="iNb2ohB7dpiWv9dnyk5C-4" value="Docker" style="swimlane;whiteSpace=wrap;html=1;" vertex="1" parent="iNb2ohB7dpiWv9dnyk5C-1">
          <mxGeometry x="40" y="40" width="1250" height="560" as="geometry" />
        </mxCell>
        <mxCell id="iNb2ohB7dpiWv9dnyk5C-6" value="" style="whiteSpace=wrap;html=1;aspect=fixed;" vertex="1" parent="iNb2ohB7dpiWv9dnyk5C-4">
          <mxGeometry x="1070" y="330" width="160" height="160" as="geometry" />
        </mxCell>
        <mxCell id="iNb2ohB7dpiWv9dnyk5C-3" value="" style="shape=image;imageAspect=0;aspect=fixed;verticalLabelPosition=bottom;verticalAlign=top;image=https://docs.lando.dev/redis/images/redisicon.png;fillColor=default;" vertex="1" parent="iNb2ohB7dpiWv9dnyk5C-4">
          <mxGeometry x="1097.5" y="340" width="105" height="105" as="geometry" />
        </mxCell>
        <mxCell id="iNb2ohB7dpiWv9dnyk5C-5" value="&lt;font style=&quot;font-size: 20px;&quot;&gt;Redis&lt;/font&gt;" style="text;html=1;align=center;verticalAlign=middle;resizable=0;points=[];autosize=1;strokeColor=none;fillColor=default;" vertex="1" parent="iNb2ohB7dpiWv9dnyk5C-4">
          <mxGeometry x="1112.5" y="440" width="70" height="40" as="geometry" />
        </mxCell>
        <mxCell id="iNb2ohB7dpiWv9dnyk5C-7" value="" style="whiteSpace=wrap;html=1;aspect=fixed;" vertex="1" parent="iNb2ohB7dpiWv9dnyk5C-4">
          <mxGeometry x="1070" y="130" width="160" height="160" as="geometry" />
        </mxCell>
        <mxCell id="iNb2ohB7dpiWv9dnyk5C-8" value="" style="shape=image;imageAspect=0;aspect=fixed;verticalLabelPosition=bottom;verticalAlign=top;image=data:image/png,iVBORw0KGgoAAAANSUhEUgAAAbYAAABzCAMAAADDhdfxAAAAt1BMVEX///8HBwcAAABJnNKioqJEmtEPDw+fn5/w8PB4eHgnJye7u7vU1NTr6+uAgIBEREReXl6Pj4/4+PhVVVUYGBje3t7k5OTExMTOzs47Oztqamrn5+dMTExAQECIiIgtLS2YmJgfHx84ODhxcXGvr6/w9/u+vr6rq6taWlrk8PhkZGQyMjJQUFBprNk4lc/S5vO72e2Tw+PW6PSBud9UpNZ1styt0Ono8vmcx+W01uyJvuHE3u+ozOd1zcBlAAAUI0lEQVR4nO1daXuyOhPWuKHgAi6gda37Wlu1+///XS9ZgEwSKHha23Ne7g/P9QgxhLkzk5nJxGYyKVKkSJEixb8FTx+/PYIUV+B0/pz/9hhSKPD0FHHzeC4ULlENUvwSTofc+0OYRj3mCi5eU4X7a5ifXWYO58+1mprjvlDIHfbrG48qxRf4yBVyLlyV+1Bys348F3KFc+qZ/C0cz4cCJs795/KpWsUsV+Fc3lLP5E9hvv54dJnDGlfI7V9VxD2d8O33l5uPLUUUrPnH3lO586OCnfmje7uwT3m7HY6Pr6/Pbx9PL3PLimj28opdE2IrVX4jXgELuTQSuBWoohxcFM6X98+P9UvYGjV/u5wJcYfzh9zmCS9wuYefHWwKD/NXsmwRYP4K+9Pnx4Pan58f35lbeXqQNHN9cr9+Pv74gFNg8LT55J0vr0elwZt/nOgad36VFrL1e8rbzUCNZKEgMedqnYo54p3gNhcpUps/pgHczfB2uez3Z7q6cfzh/50vR4WXMv8klrKQe5RuPR5c3tL17ZaYPx0/3/dn4i8WAuren2Tm5pcc8SnllNY7znSlvN0c1tPb48VVvoLP3OGiyCMf94S4s6SNJLWcxgG/gvXx9XTmzOXlTVIrkonMyTHc/FGphSlug5eHt/dzoHKXZ5GJ+ZHwVjgJN+bv+GKaL/k1zNdvLKVFspFv4v315YDviJukLxf3O49pXvkXMX86FXziLqKrgWMH98ZecPnXWEufbzbGFCrMcS6SuZWiQcwcz4RQIcR+cl3RQhq+/TLmn/ucp3FvgvH72BPHRDCgb3inIF3efhsvzxdqKguHk7CSPV3IDYG3V1ffTrcbX4oQrJ/3TOHOgsKtT9gxEday+cnlTfJhUtwe60emcLl3uMK9UN4gSQ/7Qprl+hOwHmgO2Y2mIR+UNyH1/4yjtzQK+AuYf56ppTwIJhFnIsXU/3saBfwZPFxYRck7UCSXNxy/ASV8ceOGfZqc/Btwozi6wsEQ7uVEeAPX3g65QposiY+qQeBEFfRcjyN1KYWc1hpfPcDFDJcrp0F3bMz6dYxt+2e6Z5GaYBPXJLEMNk4fCoXC5WfG8F9ECVEYP9Q/8UBy4jb2A3ZLYKz2esgdUnWLi1IRZV38GG0kCUIiOMDJEZMJqMSW8/xjg/iv4edpy7ydqb7xvFmvuML1wi9vz4XcIc2VxMQNaMscFbwRdzL3yV1x1a2wT53JeLgFbTT1L/glT3ucLeGZ/HSXu7RwMh5uQpvPGx+rvWFvkjeT6/P5mG7gxMNtaMs8UDsJjCCJul+5C+uUtLi4EW2ZB7qTs+cuWWe8J5fWbV2DW9GW+aC88TH2R0EgMkVc3Iw2vDsjlCRYJKmceiFX4Ha0ZV5pbTLnTj7hFS89VnoFbkgb2bFxnUeOpk8xeEsRDzekLbMmeWXeecRX0mryK3BL2twwgGybcjH2G85xpeqWGDeljYTYLlGBmZwTdUv3tZPitrRl6PLGVUUe8ecvy0iqhq3ruu0Y1YhGd4a90PWFbdzFHo6G+104nag2d4azoP1GNgO9LtxONcUdq2M4jtFW3UqGG9M2p9kSzkzi30yIdiadca1R31YmlVG3v6mZulIeC7dR3200qWzrjfLYlhrM8kuGfMe7VOvhfkfdVbmkpsRYDsuNfndE+22WTV2sAuC6ZVOqbfbqo0mlLw3ByA+nq/pgUG/2hiUn6o2/hkRb1c6bw+HQXEZ3bNnLMW5W0pPti3/QJFfA0/EQHbvpq20W8ajUp+LQqrX+CLRBo2YeCrg6KLYYkE6uzJqToH1xYEplGcawed+C3aJKH7azRi2/W8qTuWUtddjbDHRW3K5K0qvmNz2MqUIKWoPc6i3YZ4E23Z0ptPfWdjcMtQpOuT9qEWkWK92GPIBwWK+kvpXzQsjGW1jzdh8/JMsDX8jzbarlrNgGX6gseQFr94HMSu6NdgN8x/1Qh5NhRr+QlfpFM/51uOmyxGPxuoW0WbMtEp+HsqLcaqwjhRyq7Jb34oA2ZxQMlfynrLTCTh82cyUUJnYZpP4nx+3h4Ngt5AS3lS9KgsPPLHIisZYtVRs8sj5n+a2u3wjVrIwtd4xaXK/OvUyZ3+80kIo1CLodZzKdpvcR0OY0Vb0h1LWB6tYoFWra6FcUtFXLioktWehMtaeY25v4pvJIkiVBdd08F3Z0wxqHEFIP+LirhYkXD4sbPSffnmUrZ8MkaG6PQnt1u+0FTk8/6HaY0abBp4A2PLFCeiqOeb24irZOTzkjloLNN7bIu8XpPerHXmPnJ2GrG5+4Kai2tfMhjKCe/7LKQXNimfmjrwcSbdoV9XQY+I6qOzcjukWBFVoF3U75AQe0aSZ3FQGp4Z443/ga2qobxHfs81EsAd7srWcci4PmalfxjWU9ti/6QcrtglJlvKejckqMYtgkHXpNtEaEdHHLib8QcWoxGoR1XPMfbkZ1TNcxgk3Q7UbjVNSnTRuiYJ5XVjXTrG1GKLi2CcR7DW3kO64LVs7r9mzYD3ib8Gurfc+67s6cdqfTNhauP0Db9ePSlnknMbe/nL1c1E5JHUgumExo4gutLHsiwoWRZwX63J0wShDynbDZBBgVcfWYeEoSaCXazfhHMNosM3ACys6dZrnQqkYt6xPX+ye04TnhkqZXifpbVWPj97sN9KhdZz2XfN22HCZeZMZkLbMmq1uwnH3isxxSYtLmJeUOplj0ZNj1FlK49omGggmzI9MWSh8qe0/v4Past9aoUhRmhK/w/Go2UtC29FmrAfdOM1veDd92JKcNvwLibISLRTAfvAdqPebcAkfF2rGrsc0kyZUc/JQWsZpSpmTDC2E3w2O4Wwwb90W0Yi2Y6vus7cyF4eQbcOHCDh7GTvbls0VJi7q+bKc4CBpsTJteucs3eMfCl21AWxbySmlzWowKeQ3BIQi55xvya2jLSgFi25OK75DptN/RAjbMUEEhVZyoxJzu4HgfcfFd4V1oY3GcoG6wALRLG6bWWg3KyQuE9Tpkk+pmUyAI1cvj0rhWh8IO1sKSu14s+cDVygPemAym4mzIekERliZbe4HvGXQ4Zbyt2GOu0rbKTGzrMMmhAXsOGbfrpIgNqT1D3djeJE1N+nYR+5IXwUoanNKACDdTZW/pTHgxZoPY0QEGkdkQSBsq1uj0N2rwum+x2qYt5k14N8Wbo+LqSpy1bb1bGWHa2GqHespcqsWejZhAr6ANZeXsTsabX4jykWeTQ4rBrQb1Z2KnS55y4OwG/msc4m8U6hwpiuiRLPa8sPjhz3g7ycSwAq2LQ+8lrA24EVgMWRwW32uXXpOdop7uGG3DcDBTzAztQtJNLMxAdWoQrqGtr+ha23izhXykvr9KhgtmJeOmtulGt19+t97npF23GWeSOG+LexPgAfRBvA+iLpqDBKECWgWk3IEbjajtA94ATGgPUFldm8Vn/tmiMlHNOgJmz5g1ucKTzI5V3bL4HrXwB5t4XmiraNcmL5TASn7AcqDL4XyK0Dall+oAcUNF18Ey1MCXeNpQkRdkD9Af5ldVO4bDx2Ut2lCwsX3AOvPVysoOCUq0RV8L+kpEW0U5yzTP4cevSe2B55nBXnvUSoq+SihIfUIQAzzJdQkGcAhxaCJYLV5g0oTp8jfJRAO0Dfi2fKSB7gXNsKrtWbnfkkIL1LKlUbjfBjp/R30BFGGD2ozZdtBXItpWirbBqPBs9/x81erK1hkkeTWheBYSyjJgKsONKU0HTC3AzEYQDb/koAlWDEAbmP93HB1oBGjr2MOtaiMg66ezIW1gZyKTp+ZpEyWHIRVcKegrEW1jda+LYHFzyNKGKsp2S9qLwq0JwcNe/l0Z1QvxxKHekjNhYO7XhC+DhEULzyZAG3jbO37J4oMbo6TM3DPaqOcKdH4Adb4c6gsEoOlRqjVX0KYr2rrQWGjR9NY5d+1XoDNmPklU0QDA/AQTk6qRihLDm2JDzwxpwPsfC19uS3cBbWAlrPIRIhe8mv1Q0nCnVIKAth7U+Q21kZFTme78oEnQVyLawpyJib9mMjtYaapALRbaxKYt84y17RxV/JNXyAyhLvNODGAGpQ0/YLtwMAZog9usdRVt7U04Z2G0QZ3XyKqCBtEWiAYmKOgr6X6bEnSFQYOOZ7SQGvReM26VDK5IDkn8+7DKyl0x1CdzAzgSYoJHoA2LMyFtTjeSNTVtQzAEmsBFvWjaaJqFqOQ30kaTCzh7K+cD5HcJiytVuMDdUgWsmjJXT/01HdAmubD/kDanKzxZ8iRVtMEwxaD2rxxNWy1w9L6RNrYLd29YquybKNBV/Fq3zCe2ktE1W1ppq1Q4rNT6T2pbB+7j4azytr5b8Q1j01b7Rdq6basXaSQp1Lk3NR5IguuLylZbuXuNhhY0khMp8gC0YXEmoc0ag6+jyjQ/s4323SwRbb9pJHfe2sa0Da1K+VIopOxrFPB2zeGrytaqrnDC0cSBLkkrL36Nv0ty30louwNJluLQYbPRTkQbc0nqv+GSMBexrlksChmGNEyOE9wsDUPVmcq7y6ZlAYUQRwV0kZRkJaGNVza+cG+RiLZMI04AQFWyFfT1LbSxAGDndxp7U+1LPOPC1li/IKPNhPo3XKwDHAQx7Qf2WCrYhUlCG597LI6DlglpK0fHVgRyuJ39Btq8cHvjp2HqUYNIhDUudD3EPJTYnk4Abx2wXS1lgEHlyD2+koQ2vikfdiWkbRk/uZXn+lKpZzuEtpAMDPPXsBGiLb/Q+UTAP+B0iH0GWN/yEjKgJWtBn6QNNtzItk8C2sCyyQt9mYy2zoRKLCKV3KHrH00le5GxQj3tENpCdjjZZMC5r8Uo2pwmx176nbtImFlOQgsgXHGrD+6gSvttX9AGYgve/E6T0eb5cxHuQIkq5I6MfpwN5WIYQptaky1qbFDR7faObeJE7B4lxGMhF1H+L0HnU746kDasBGcRk3eLrhUJaFtKqkphFRPSxrZJK6Grm8FkSnNz3u5mQ25YCaFtpAyUdS8liT+wHfTWPz+dxfAW6ZNYNSEIBGUKBpSuG1kGCRoNJHTYPLtW27itOUBRHNoyHg8hWQivEo5t07EKdupWAniOsVyUoKpyZE4/mw2s5C9+PeRXeCJ/rSjsro4qZWCQgYRckgxYb7f1eNNALhOxDcJr17bs2Gtngm6LcWibsTVGfQTG90GYVfQ3paXEeDeUtoFizdK9Kj/qhrBPo394pM7HywHUbwkg0dqkbFc1XMqrtfkzGqiOuYBnBBAa32kudHjqwttbS0AbDAmLY/J8YwWfFkvbLFZ4hKaKZK2XLkRNbzPKK93pC26fbz38ZW/sF9zJmy6GV2/M3pz5bokSxlEgR0tD/ywRjUNd3K+m5V4dJnLJfmxnBQlCqN7oT4Sq5CYzUEkCAKFsdjQ1hXrKQAujacsYI48aaa63PZKCan1m9oUqOsssyrT5SXZw+AP022U3LG8Mm+/xJufElQz56c+2pzSKEnGc3MIQT84oivW3XmSThLbSV91ijMmXv6ANn9Cj94olILR23i8eDr7l+Tyowp2F7QyLyKt4FmkjMxserrU9Bc/6MZHufbs/k2slnQRpZAq6wx3y8xahh8Lw84fsrZbRm2Lu6u5nppLQ1lEfpIJdU2l/QRsunWYyQ/3hjFnDqm7u5FJ9rjc0qbHp1hk38emMShnGBpQ2ROwf6o79yiPD9Gd7cObA8uo7UHE6470jy1nW7sV07pegf8ghJHCrRbC284dZit6CRsEpr0QbN6qNddJfYto8b5F8u9JvTMu16SY4X+bXW7LGwQGqbQOfqer1KT9DB9JGY1jkVczVp+OZbc/M3sDvgN+xrk79bif9nrnUbVuf5Ye9VbeFopM4KlivpJ5EfW8TygfwicKOLpIx8pVkiWirKjcXXYXhWtIg+kvasKMRECdbfARq9HS5bZZEIdS79WuXWBpE07yDa9liq8WdRAlOJdFXDM5PuSA/PlBktp+m/hLhMzzedu5D6EBe6TWDPQghDkHnONnudrsp94paNldSy8LBGLRlSpMImwDFZpmK5+ICLIPyN2bt2GlEDSdBPCPMH1LtCyuWVeNTBfzUiaiZDsNzBG2NrOpd8blJYVntDO+Vp5cHJmiYsJbEECuAXFHYmTYnml4gP+9SWERrN8IOxpK4hW/qn3sLGkzwKmXQujnvCWSpI8kruVQJb+vKcWK+r5w7KMHJDQ8kTRLyO6Cd2VTxoxD3NUXhs2Peg5b4w24seLsrfhceFtx1uTt+kuxuHCxAuMd7s03cWx87i8qPQ2giopoXN3u56d4FI9WWA/gqK3L+3KiQJ3gVDiSoRRNy6G+8hVLKbpTVk22pgJCMQRLU13g7FArhP99adfRhs8JJpVvTDfX+gzGr8bKvD+UfuSmVA0yBXdBM7tYweAlnXPd7bObJkzWuF6rMsyn35ZBiU4y2vin6SxXGZub/doFQbWKMt8GrNHTqWnQ23cFgcO8FdEP8qcvOfRvje27elfWwgp72rMyL07Vcm7x9xV/JeTi5iNoCsKqdtqMvx2YpvzDanYhsqOY2zJu1Ws3Eh8oV5FoaByvWLatj6G6XQ/fdqoqmX3UroNrWa/QwQbFbnrk95v3VRbAgVscp9Xbd+qqmBw+udjC8j/CT+4X8dDfo1jdDO/IHvbSOsRz2Gv1do1cruXJKHLPRx80xrvpqSIfWt/9lrO/s0fJBPvrqtpLTTlyzJH0nGEWCvlPw6PjL2/i3h5IiAbzd3J/7g14pfgB3Xj2Mamc0xZ+F7u+/xD8ZmOLXYfm54+11Tl2KX4Gfw/vGEp0UPw/2+1NI+KmHFH8bVpPmTXqpL/mvgk3SduM0+v2XYYqQ9JvdKf487rb5b6s8TXE7pPYxRYoUKVKkSJEixf83/gfeXoe/TOqbqAAAAABJRU5ErkJggg==;" vertex="1" parent="iNb2ohB7dpiWv9dnyk5C-4">
          <mxGeometry x="1080" y="191.62" width="140" height="36.76" as="geometry" />
        </mxCell>
        <mxCell id="iNb2ohB7dpiWv9dnyk5C-11" value="Minikube" style="swimlane;whiteSpace=wrap;html=1;" vertex="1" parent="iNb2ohB7dpiWv9dnyk5C-4">
          <mxGeometry x="40" y="50" width="980" height="470" as="geometry" />
        </mxCell>
        <mxCell id="iNb2ohB7dpiWv9dnyk5C-20" value="" style="whiteSpace=wrap;html=1;aspect=fixed;" vertex="1" parent="iNb2ohB7dpiWv9dnyk5C-11">
          <mxGeometry x="80" y="120" width="160" height="160" as="geometry" />
        </mxCell>
        <mxCell id="iNb2ohB7dpiWv9dnyk5C-19" value="" style="shape=image;imageAspect=0;aspect=fixed;verticalLabelPosition=bottom;verticalAlign=top;image=https://upload.wikimedia.org/wikipedia/commons/thumb/3/38/Prometheus_software_logo.svg/800px-Prometheus_software_logo.svg.png;" vertex="1" parent="iNb2ohB7dpiWv9dnyk5C-11">
          <mxGeometry x="112.24000000000001" y="152.7" width="95.53" height="94.61" as="geometry" />
        </mxCell>
        <mxCell id="iNb2ohB7dpiWv9dnyk5C-21" value="&lt;font style=&quot;font-size: 20px;&quot;&gt;Prometheus&lt;/font&gt;" style="text;html=1;align=center;verticalAlign=middle;resizable=0;points=[];autosize=1;strokeColor=none;fillColor=none;" vertex="1" parent="iNb2ohB7dpiWv9dnyk5C-11">
          <mxGeometry x="95" y="240" width="130" height="40" as="geometry" />
        </mxCell>
        <mxCell id="iNb2ohB7dpiWv9dnyk5C-26" value="Helm" style="swimlane;whiteSpace=wrap;html=1;" vertex="1" parent="iNb2ohB7dpiWv9dnyk5C-11">
          <mxGeometry x="350" y="40" width="600" height="420" as="geometry" />
        </mxCell>
        <mxCell id="iNb2ohB7dpiWv9dnyk5C-13" value="" style="whiteSpace=wrap;html=1;aspect=fixed;" vertex="1" parent="iNb2ohB7dpiWv9dnyk5C-26">
          <mxGeometry x="410" y="59.43000000000001" width="160" height="160" as="geometry" />
        </mxCell>
        <mxCell id="iNb2ohB7dpiWv9dnyk5C-12" value="" style="shape=image;imageAspect=0;aspect=fixed;verticalLabelPosition=bottom;verticalAlign=top;image=https://tacsio.github.io/blog/contents/images/2020/quarkus-logo.png;" vertex="1" parent="iNb2ohB7dpiWv9dnyk5C-26">
          <mxGeometry x="432.22" y="104.43" width="115.56" height="70" as="geometry" />
        </mxCell>
        <mxCell id="iNb2ohB7dpiWv9dnyk5C-18" value="" style="whiteSpace=wrap;html=1;aspect=fixed;" vertex="1" parent="iNb2ohB7dpiWv9dnyk5C-26">
          <mxGeometry x="210" y="59.43000000000001" width="160" height="160" as="geometry" />
        </mxCell>
        <mxCell id="iNb2ohB7dpiWv9dnyk5C-17" value="" style="shape=image;imageAspect=0;aspect=fixed;verticalLabelPosition=bottom;verticalAlign=top;image=https://upload.wikimedia.org/wikipedia/commons/thumb/a/a1/Grafana_logo.svg/1200px-Grafana_logo.svg.png;" vertex="1" parent="iNb2ohB7dpiWv9dnyk5C-26">
          <mxGeometry x="240.5" y="88.86000000000001" width="99" height="101.14" as="geometry" />
        </mxCell>
        <mxCell id="iNb2ohB7dpiWv9dnyk5C-16" value="" style="whiteSpace=wrap;html=1;aspect=fixed;" vertex="1" parent="iNb2ohB7dpiWv9dnyk5C-26">
          <mxGeometry x="20" y="59.43000000000001" width="160" height="160" as="geometry" />
        </mxCell>
        <mxCell id="iNb2ohB7dpiWv9dnyk5C-15" value="" style="shape=image;imageAspect=0;aspect=fixed;verticalLabelPosition=bottom;verticalAlign=top;image=https://grafana.com/docs/loki/latest/logo_and_name.png;" vertex="1" parent="iNb2ohB7dpiWv9dnyk5C-26">
          <mxGeometry x="32.24000000000001" y="99.43" width="135.51" height="80" as="geometry" />
        </mxCell>
        <mxCell id="iNb2ohB7dpiWv9dnyk5C-27" value="Terraform" style="swimlane;whiteSpace=wrap;html=1;" vertex="1" parent="iNb2ohB7dpiWv9dnyk5C-11">
          <mxGeometry x="50" y="40" width="260" height="410" as="geometry" />
        </mxCell>
        <mxCell id="iNb2ohB7dpiWv9dnyk5C-33" value="" style="endArrow=classic;html=1;rounded=0;entryX=-0.006;entryY=0.678;entryDx=0;entryDy=0;entryPerimeter=0;" edge="1" parent="iNb2ohB7dpiWv9dnyk5C-4" target="iNb2ohB7dpiWv9dnyk5C-7">
          <mxGeometry width="50" height="50" relative="1" as="geometry">
            <mxPoint x="960" y="238" as="sourcePoint" />
            <mxPoint x="970" y="240" as="targetPoint" />
          </mxGeometry>
        </mxCell>
        <mxCell id="iNb2ohB7dpiWv9dnyk5C-34" value="" style="endArrow=classic;html=1;rounded=0;exitX=1;exitY=1;exitDx=0;exitDy=0;entryX=-0.018;entryY=0.375;entryDx=0;entryDy=0;entryPerimeter=0;" edge="1" parent="iNb2ohB7dpiWv9dnyk5C-4" source="iNb2ohB7dpiWv9dnyk5C-13" target="iNb2ohB7dpiWv9dnyk5C-6">
          <mxGeometry width="50" height="50" relative="1" as="geometry">
            <mxPoint x="920" y="410" as="sourcePoint" />
            <mxPoint x="970" y="360" as="targetPoint" />
          </mxGeometry>
        </mxCell>
        <mxCell id="iNb2ohB7dpiWv9dnyk5C-9" value="" style="shape=image;imageAspect=0;aspect=fixed;verticalLabelPosition=bottom;verticalAlign=top;image=https://www.learntek.org/blog/wp-content/uploads/2018/05/jenkins_image.png;" vertex="1" parent="iNb2ohB7dpiWv9dnyk5C-1">
          <mxGeometry x="1424.18" y="290" width="131.64" height="80" as="geometry" />
        </mxCell>
        <mxCell id="iNb2ohB7dpiWv9dnyk5C-35" value="" style="endArrow=classic;html=1;rounded=0;exitX=-0.028;exitY=0.437;exitDx=0;exitDy=0;exitPerimeter=0;entryX=1;entryY=0.5;entryDx=0;entryDy=0;" edge="1" parent="iNb2ohB7dpiWv9dnyk5C-1" source="iNb2ohB7dpiWv9dnyk5C-10" target="iNb2ohB7dpiWv9dnyk5C-4">
          <mxGeometry width="50" height="50" relative="1" as="geometry">
            <mxPoint x="960" y="330" as="sourcePoint" />
            <mxPoint x="1010" y="280" as="targetPoint" />
          </mxGeometry>
        </mxCell>
        <mxCell id="iNb2ohB7dpiWv9dnyk5C-30" value="" style="endArrow=classic;html=1;rounded=0;" edge="1" parent="1">
          <mxGeometry width="50" height="50" relative="1" as="geometry">
            <mxPoint x="920" y="390" as="sourcePoint" />
            <mxPoint x="760" y="390" as="targetPoint" />
            <Array as="points">
              <mxPoint x="920" y="440" />
              <mxPoint x="760" y="440" />
            </Array>
          </mxGeometry>
        </mxCell>
        <mxCell id="iNb2ohB7dpiWv9dnyk5C-31" value="" style="endArrow=classic;html=1;rounded=0;entryX=0.5;entryY=1;entryDx=0;entryDy=0;" edge="1" parent="1" target="iNb2ohB7dpiWv9dnyk5C-16">
          <mxGeometry width="50" height="50" relative="1" as="geometry">
            <mxPoint x="970" y="390" as="sourcePoint" />
            <mxPoint x="810" y="390" as="targetPoint" />
            <Array as="points">
              <mxPoint x="970" y="480" />
              <mxPoint x="890" y="480" />
              <mxPoint x="810" y="480" />
              <mxPoint x="570" y="480" />
            </Array>
          </mxGeometry>
        </mxCell>
        <mxCell id="iNb2ohB7dpiWv9dnyk5C-32" value="" style="endArrow=classic;html=1;rounded=0;" edge="1" parent="1">
          <mxGeometry width="50" height="50" relative="1" as="geometry">
            <mxPoint x="1010" y="391" as="sourcePoint" />
            <mxPoint x="280" y="410" as="targetPoint" />
            <Array as="points">
              <mxPoint x="1010" y="520" />
              <mxPoint x="940" y="520" />
              <mxPoint x="880" y="520" />
              <mxPoint x="280" y="520" />
            </Array>
          </mxGeometry>
        </mxCell>
      </root>
    </mxGraphModel>
  </diagram>
</mxfile>
